<mxfile host="app.diagrams.net" modified="2024-02-29T07:18:58.039Z" agent="Mozilla/5.0 (Windows NT 10.0; Win64; x64) AppleWebKit/537.36 (KHTML, like Gecko) Chrome/122.0.0.0 Safari/537.36" etag="zCt65H38PIrODPa75kIf" version="23.1.8" type="device">
  <diagram name="Page-1" id="757vi46jVHQDNovQB2c3">
    <mxGraphModel dx="1970" dy="460" grid="1" gridSize="10" guides="1" tooltips="1" connect="1" arrows="1" fold="1" page="1" pageScale="1" pageWidth="850" pageHeight="1100" math="0" shadow="0">
      <root>
        <mxCell id="0" />
        <mxCell id="1" parent="0" />
        <mxCell id="IdOtUdWx-Dkxds7xAZGA-1" value="" style="rounded=0;whiteSpace=wrap;html=1;strokeColor=#000099;" parent="1" vertex="1">
          <mxGeometry x="-40" y="50" width="860" height="390" as="geometry" />
        </mxCell>
        <mxCell id="LXKvnrX-jdmx19rkcMqV-18" value="" style="rounded=1;whiteSpace=wrap;html=1;" vertex="1" parent="1">
          <mxGeometry x="230" y="150" width="120" height="60" as="geometry" />
        </mxCell>
        <mxCell id="LXKvnrX-jdmx19rkcMqV-19" value="" style="rounded=1;whiteSpace=wrap;html=1;" vertex="1" parent="1">
          <mxGeometry x="425" y="150" width="120" height="60" as="geometry" />
        </mxCell>
        <mxCell id="LXKvnrX-jdmx19rkcMqV-20" value="" style="rounded=1;whiteSpace=wrap;html=1;" vertex="1" parent="1">
          <mxGeometry x="630" y="150" width="120" height="60" as="geometry" />
        </mxCell>
        <mxCell id="LXKvnrX-jdmx19rkcMqV-21" value="" style="rounded=0;whiteSpace=wrap;html=1;rotation=90;" vertex="1" parent="1">
          <mxGeometry x="-165" y="205" width="360" height="90" as="geometry" />
        </mxCell>
        <mxCell id="LXKvnrX-jdmx19rkcMqV-22" value="DATA LAPORAN" style="text;html=1;align=center;verticalAlign=middle;whiteSpace=wrap;rounded=0;" vertex="1" parent="1">
          <mxGeometry x="100" y="80" width="110" height="30" as="geometry" />
        </mxCell>
      </root>
    </mxGraphModel>
  </diagram>
</mxfile>
